# xmcd
#
# Track frame offsets: 
#        150
#        19899
#        40075
#        58133
#        79480
#        98137
#        114749
#        135497
#        151015
#        171024
#        191731
#        212036
#
# Disc length: 3156 seconds
#
# Revision: 2
# Processed by: cddbd v1.5.2PL0 Copyright (c) Steve Scherf et al.
# Submitted via: ExactAudioCopy v1.0b3
#
DISCID=a00c520c
DTITLE=Battlestar - Above Market Value
DYEAR=2002
DGENRE=Country/Hip-Hop
TTITLE0=Out There Laughing
TTITLE1=Home Economics
TTITLE2=Love In This World
TTITLE3=Metermaid Anthem
TTITLE4=Ain't Yet
TTITLE5=Ties That Bind
TTITLE6=Counter Culture
TTITLE7=For What It's Worth
TTITLE8=Over Borders
TTITLE9=I Am a Man of Constant Sorrow
TTITLE10=Home At War
TTITLE11=Bettterdays
EXTD=http://www.b-star.net
EXTT0=
EXTT1=
EXTT2=
EXTT3=
EXTT4=
EXTT5=
EXTT6=
EXTT7=
EXTT8=
EXTT9=
EXTT10=
EXTT11=
PLAYORDER=
